<svg width="48" height="48" viewBox="0 0 48 48" fill="none" xmlns="http://www.w3.org/2000/svg">
<path d="M42.75 9.00001V18C42.75 18.5968 42.5129 19.169 42.091 19.591C41.669 20.013 41.0967 20.25 40.5 20.25H31.5C30.9033 20.25 30.331 20.013 29.909 19.591C29.4871 19.169 29.25 18.5968 29.25 18C29.25 17.4033 29.4871 16.831 29.909 16.409C30.331 15.9871 30.9033 15.75 31.5 15.75H35.0625L33.6 14.2875C30.9522 11.6265 27.3564 10.1254 23.6025 10.1138H23.5219C19.8015 10.1056 16.2275 11.5626 13.5731 14.1694C13.1465 14.5866 12.5715 14.8172 11.9748 14.8106C11.3781 14.8039 10.8085 14.5604 10.3912 14.1338C9.97403 13.7071 9.74339 13.1322 9.75007 12.5354C9.75676 11.9387 10.0002 11.3691 10.4269 10.9519C13.9223 7.51961 18.6287 5.60188 23.5275 5.61376H23.625C28.567 5.62724 33.3014 7.60261 36.7875 11.1056L38.25 12.5625V9.00001C38.25 8.40328 38.4871 7.83098 38.909 7.40902C39.331 6.98707 39.9033 6.75001 40.5 6.75001C41.0967 6.75001 41.669 6.98707 42.091 7.40902C42.5129 7.83098 42.75 8.40328 42.75 9.00001ZM34.4269 33.8306C31.7711 36.4388 28.1948 37.8959 24.4725 37.8863H24.3919C20.638 37.8746 17.0422 36.3735 14.3944 33.7125L12.9375 32.25H16.5C17.0967 32.25 17.669 32.013 18.091 31.591C18.5129 31.169 18.75 30.5967 18.75 30C18.75 29.4033 18.5129 28.831 18.091 28.409C17.669 27.9871 17.0967 27.75 16.5 27.75H7.5C6.90326 27.75 6.33097 27.9871 5.90901 28.409C5.48705 28.831 5.25 29.4033 5.25 30V39C5.25 39.5967 5.48705 40.169 5.90901 40.591C6.33097 41.013 6.90326 41.25 7.5 41.25C8.09674 41.25 8.66903 41.013 9.09099 40.591C9.51295 40.169 9.75 39.5967 9.75 39V35.4375L11.2125 36.9C14.6995 40.401 19.4338 42.3743 24.375 42.3863H24.48C29.3788 42.3981 34.0852 40.4804 37.5806 37.0481C37.7919 36.8415 37.9604 36.5954 38.0765 36.3237C38.1926 36.052 38.2541 35.76 38.2574 35.4646C38.2607 35.1691 38.2058 34.8759 38.0958 34.6016C37.9858 34.3274 37.8228 34.0775 37.6162 33.8663C37.4097 33.655 37.1635 33.4865 36.8918 33.3704C36.6201 33.2542 36.3282 33.1928 36.0327 33.1895C35.7372 33.1861 35.444 33.2411 35.1698 33.3511C34.8955 33.4611 34.6456 33.624 34.4344 33.8306H34.4269Z" fill="#1FFFA5"/>
</svg>
