<svg width="17" height="16" viewBox="0 0 17 16" fill="none" xmlns="http://www.w3.org/2000/svg">
<path d="M14.5306 8.53074L10.0306 13.0307C9.88973 13.1716 9.69863 13.2508 9.49938 13.2508C9.30012 13.2508 9.10902 13.1716 8.96813 13.0307C8.82723 12.8898 8.74807 12.6987 8.74807 12.4995C8.74807 12.3002 8.82723 12.1091 8.96813 11.9682L12.1875 8.75011H3C2.80109 8.75011 2.61032 8.67109 2.46967 8.53044C2.32902 8.38979 2.25 8.19902 2.25 8.00011C2.25 7.8012 2.32902 7.61043 2.46967 7.46978C2.61032 7.32913 2.80109 7.25011 3 7.25011H12.1875L8.96937 4.03011C8.82848 3.88921 8.74932 3.69812 8.74932 3.49886C8.74932 3.2996 8.82848 3.10851 8.96937 2.96761C9.11027 2.82671 9.30137 2.74756 9.50062 2.74756C9.69988 2.74756 9.89098 2.82671 10.0319 2.96761L14.5319 7.46761C14.6018 7.53738 14.6573 7.62028 14.6951 7.71155C14.7329 7.80281 14.7523 7.90065 14.7522 7.99943C14.752 8.09822 14.7324 8.19601 14.6944 8.28718C14.6564 8.37836 14.6007 8.46113 14.5306 8.53074Z" fill="#00E68A"/>
</svg>
