<svg width="48" height="48" viewBox="0 0 48 48" fill="none" xmlns="http://www.w3.org/2000/svg">
<path d="M28.5 21.75H26.25V11.25H27C28.3924 11.25 29.7277 11.8031 30.7123 12.7877C31.6969 13.7723 32.25 15.1076 32.25 16.5C32.25 17.0967 32.4871 17.669 32.909 18.091C33.331 18.5129 33.9033 18.75 34.5 18.75C35.0967 18.75 35.669 18.5129 36.091 18.091C36.5129 17.669 36.75 17.0967 36.75 16.5C36.747 13.9151 35.7188 11.4368 33.891 9.609C32.0632 7.78116 29.5849 6.75298 27 6.75H26.25V4.5C26.25 3.90326 26.0129 3.33097 25.591 2.90901C25.169 2.48705 24.5967 2.25 24 2.25C23.4033 2.25 22.831 2.48705 22.409 2.90901C21.9871 3.33097 21.75 3.90326 21.75 4.5V6.75H21C18.4141 6.75 15.9342 7.77723 14.1057 9.60571C12.2772 11.4342 11.25 13.9141 11.25 16.5C11.25 19.0859 12.2772 21.5658 14.1057 23.3943C15.9342 25.2228 18.4141 26.25 21 26.25H21.75V36.75H19.5C18.1076 36.75 16.7723 36.1969 15.7877 35.2123C14.8031 34.2277 14.25 32.8924 14.25 31.5C14.25 30.9033 14.0129 30.331 13.591 29.909C13.169 29.4871 12.5967 29.25 12 29.25C11.4033 29.25 10.831 29.4871 10.409 29.909C9.98705 30.331 9.75 30.9033 9.75 31.5C9.75298 34.0849 10.7812 36.5632 12.609 38.391C14.4368 40.2188 16.9151 41.247 19.5 41.25H21.75V43.5C21.75 44.0967 21.9871 44.669 22.409 45.091C22.831 45.5129 23.4033 45.75 24 45.75C24.5967 45.75 25.169 45.5129 25.591 45.091C26.0129 44.669 26.25 44.0967 26.25 43.5V41.25H28.5C31.0859 41.25 33.5658 40.2228 35.3943 38.3943C37.2228 36.5658 38.25 34.0859 38.25 31.5C38.25 28.9141 37.2228 26.4342 35.3943 24.6057C33.5658 22.7772 31.0859 21.75 28.5 21.75ZM21 21.75C19.6076 21.75 18.2723 21.1969 17.2877 20.2123C16.3031 19.2277 15.75 17.8924 15.75 16.5C15.75 15.1076 16.3031 13.7723 17.2877 12.7877C18.2723 11.8031 19.6076 11.25 21 11.25H21.75V21.75H21ZM28.5 36.75H26.25V26.25H28.5C29.8924 26.25 31.2277 26.8031 32.2123 27.7877C33.1969 28.7723 33.75 30.1076 33.75 31.5C33.75 32.8924 33.1969 34.2277 32.2123 35.2123C31.2277 36.1969 29.8924 36.75 28.5 36.75Z" fill="#1FFFA5"/>
</svg>
