<svg width="24" height="24" viewBox="0 0 24 24" fill="none" xmlns="http://www.w3.org/2000/svg">
<path d="M2 10.8889C2 6.69889 2 4.60333 3.30222 3.30222C4.60444 2.00111 6.69889 2 10.8889 2H13.1111C17.3011 2 19.3967 2 20.6978 3.30222C21.9989 4.60444 22 6.69889 22 10.8889V13.1111C22 17.3011 22 19.3967 20.6978 20.6978C19.3956 21.9989 17.3011 22 13.1111 22H10.8889C6.69889 22 4.60333 22 3.30222 20.6978C2.00111 19.3956 2 17.3011 2 13.1111V10.8889Z" stroke="#0A0F0D" stroke-width="2"/>
<path d="M16.9999 8.66634C17.9204 8.66634 18.6666 7.92015 18.6666 6.99967C18.6666 6.0792 17.9204 5.33301 16.9999 5.33301C16.0794 5.33301 15.3333 6.0792 15.3333 6.99967C15.3333 7.92015 16.0794 8.66634 16.9999 8.66634Z" fill="#0A0F0D"/>
<path d="M12.0001 15.3337C13.841 15.3337 15.3334 13.8413 15.3334 12.0003C15.3334 10.1594 13.841 8.66699 12.0001 8.66699C10.1591 8.66699 8.66675 10.1594 8.66675 12.0003C8.66675 13.8413 10.1591 15.3337 12.0001 15.3337Z" stroke="#0A0F0D" stroke-width="2"/>
</svg>
