<svg width="48" height="48" viewBox="0 0 48 48" fill="none" xmlns="http://www.w3.org/2000/svg">
<path d="M41.1956 22.0087C41.1158 21.6521 40.9503 21.3202 40.7135 21.0419C40.4766 20.7636 40.1755 20.5471 39.8362 20.4112L30.24 16.5731L32.2256 3.33375C32.2985 2.85833 32.2171 2.37207 31.9934 1.94629C31.7697 1.52051 31.4155 1.17762 30.9826 0.967908C30.5498 0.758198 30.0611 0.692708 29.5884 0.781044C29.1156 0.86938 28.6835 1.10689 28.3556 1.45875L7.35561 23.9587C7.10599 24.2261 6.9253 24.5502 6.82919 24.9031C6.73308 25.256 6.72445 25.627 6.80405 25.984C6.88365 26.341 7.04907 26.6732 7.28599 26.9518C7.52292 27.2305 7.82419 27.4472 8.16374 27.5831L17.76 31.4212L15.7744 44.6662C15.7015 45.1417 15.7828 45.6279 16.0065 46.0537C16.2302 46.4795 16.5845 46.8224 17.0173 47.0321C17.4502 47.2418 17.9388 47.3073 18.4116 47.2189C18.8844 47.1306 19.3164 46.8931 19.6444 46.5412L40.6444 24.0412C40.8951 23.7731 41.0764 23.4477 41.1725 23.0935C41.2685 22.7392 41.2765 22.3668 41.1956 22.0087ZM21.3 38.1656L22.4756 30.3337C22.5507 29.8325 22.4544 29.3205 22.2022 28.8809C21.9501 28.4412 21.5568 28.0995 21.0862 27.9112L12.8887 24.6319L26.7 9.83437L25.5244 17.6662C25.4492 18.1675 25.5456 18.6795 25.7977 19.1191C26.0499 19.5588 26.4431 19.9005 26.9137 20.0887L35.1112 23.3681L21.3 38.1656Z" fill="#1FFFA5"/>
</svg>
