<svg width="48" height="48" viewBox="0 0 48 48" fill="none" xmlns="http://www.w3.org/2000/svg">
<path d="M38.1694 9.56249C35.3261 6.76531 31.7194 4.871 27.8026 4.11763C23.8858 3.36426 19.8337 3.78544 16.1556 5.32825C12.4775 6.87106 9.33754 9.46665 7.13028 12.7888C4.92302 16.111 3.74699 20.0114 3.75001 24C3.75001 32.385 8.92501 39.4219 17.25 42.3637C18.2681 42.7237 19.3577 42.8341 20.4273 42.6858C21.4969 42.5374 22.5153 42.1346 23.397 41.5112C24.2787 40.8878 24.998 40.0619 25.4944 39.1029C25.9909 38.1439 26.25 37.0798 26.25 36C26.25 35.4033 26.4871 34.831 26.909 34.409C27.331 33.987 27.9033 33.75 28.5 33.75H37.1644C38.6958 33.7572 40.1835 33.2404 41.3807 32.2854C42.5778 31.3304 43.4123 29.9947 43.7456 28.5C44.0934 26.9678 44.2626 25.4005 44.25 23.8294C44.2315 21.1672 43.6845 18.5351 42.6407 16.086C41.5968 13.6369 40.077 11.4195 38.1694 9.56249ZM39.3581 27.5006C39.2464 27.998 38.9679 28.4422 38.5688 28.7594C38.1698 29.0766 37.6742 29.2478 37.1644 29.2444H28.5C26.7098 29.2444 24.9929 29.9555 23.727 31.2214C22.4612 32.4873 21.75 34.2042 21.75 35.9944C21.7496 36.3541 21.6629 36.7085 21.4973 37.0278C21.3316 37.3472 21.0918 37.6221 20.798 37.8297C20.5042 38.0372 20.1648 38.1712 19.8085 38.2205C19.4521 38.2699 19.0892 38.233 18.75 38.1131C15.6281 37.0106 13.0031 35.1581 11.16 32.7581C9.24533 30.2424 8.22162 27.1613 8.25001 24C8.24978 19.8509 9.88674 15.8694 12.8053 12.9203C15.7238 9.97128 19.6881 8.29296 23.8369 8.24999H24C28.149 8.26688 32.1252 9.91347 35.0714 12.8348C38.0176 15.7561 39.6979 19.7182 39.75 23.8669C39.7602 25.0917 39.6287 26.3135 39.3581 27.5081V27.5006ZM27 14.25C27 14.8433 26.8241 15.4234 26.4944 15.9167C26.1648 16.41 25.6962 16.7946 25.1481 17.0216C24.5999 17.2487 23.9967 17.3081 23.4147 17.1923C22.8328 17.0766 22.2982 16.7909 21.8787 16.3713C21.4591 15.9518 21.1734 15.4172 21.0576 14.8353C20.9419 14.2533 21.0013 13.6501 21.2284 13.1019C21.4554 12.5538 21.8399 12.0852 22.3333 11.7556C22.8266 11.4259 23.4067 11.25 24 11.25C24.7957 11.25 25.5587 11.5661 26.1213 12.1287C26.6839 12.6913 27 13.4543 27 14.25ZM18.75 18.75C18.75 19.3433 18.5741 19.9234 18.2444 20.4167C17.9148 20.91 17.4462 21.2946 16.8981 21.5216C16.3499 21.7487 15.7467 21.8081 15.1647 21.6923C14.5828 21.5766 14.0482 21.2909 13.6287 20.8713C13.2091 20.4517 12.9234 19.9172 12.8076 19.3353C12.6919 18.7533 12.7513 18.1501 12.9784 17.6019C13.2054 17.0538 13.5899 16.5852 14.0833 16.2556C14.5766 15.9259 15.1567 15.75 15.75 15.75C16.5457 15.75 17.3087 16.0661 17.8713 16.6287C18.4339 17.1913 18.75 17.9543 18.75 18.75ZM18.75 29.25C18.75 29.8433 18.5741 30.4234 18.2444 30.9167C17.9148 31.41 17.4462 31.7946 16.8981 32.0216C16.3499 32.2487 15.7467 32.3081 15.1647 32.1923C14.5828 32.0766 14.0482 31.7909 13.6287 31.3713C13.2091 30.9518 12.9234 30.4172 12.8076 29.8353C12.6919 29.2533 12.7513 28.6501 12.9784 28.1019C13.2054 27.5538 13.5899 27.0852 14.0833 26.7556C14.5766 26.4259 15.1567 26.25 15.75 26.25C16.5457 26.25 17.3087 26.5661 17.8713 27.1287C18.4339 27.6913 18.75 28.4543 18.75 29.25ZM35.25 18.75C35.25 19.3433 35.0741 19.9234 34.7444 20.4167C34.4148 20.91 33.9462 21.2946 33.3981 21.5216C32.8499 21.7487 32.2467 21.8081 31.6647 21.6923C31.0828 21.5766 30.5482 21.2909 30.1287 20.8713C29.7091 20.4517 29.4234 19.9172 29.3076 19.3353C29.1919 18.7533 29.2513 18.1501 29.4784 17.6019C29.7054 17.0538 30.0899 16.5852 30.5833 16.2556C31.0766 15.9259 31.6567 15.75 32.25 15.75C33.0457 15.75 33.8087 16.0661 34.3713 16.6287C34.9339 17.1913 35.25 17.9543 35.25 18.75Z" fill="#1FFFA5"/>
</svg>
