<svg width="84" height="84" viewBox="0 0 84 84" fill="none" xmlns="http://www.w3.org/2000/svg">
<rect width="84" height="84" rx="42" fill="#003D25"/>
<path d="M52.627 31.172C50.4945 29.0741 47.7895 27.6533 44.8519 27.0883C41.9144 26.5233 38.8753 26.8392 36.1167 27.9963C33.3582 29.1534 31.0032 31.1001 29.3477 33.5917C27.6923 36.0833 26.8102 39.0087 26.8125 42.0001C26.8125 48.2888 30.6938 53.5665 36.9375 55.7729C37.7011 56.0429 38.5183 56.1257 39.3205 56.0144C40.1227 55.9032 40.8865 55.6011 41.5478 55.1335C42.2091 54.6659 42.7485 54.0465 43.1208 53.3273C43.4931 52.608 43.6875 51.81 43.6875 51.0001C43.6875 50.5525 43.8653 50.1233 44.1818 49.8069C44.4982 49.4904 44.9275 49.3126 45.375 49.3126H51.8733C53.0218 49.318 54.1376 48.9304 55.0355 48.2141C55.9334 47.4979 56.5592 46.4961 56.8092 45.3751C57.07 44.2259 57.197 43.0505 57.1875 41.8721C57.1736 39.8755 56.7634 37.9015 55.9805 36.0646C55.1976 34.2278 54.0578 32.5647 52.627 31.172ZM53.5186 44.6256C53.4348 44.9986 53.2259 45.3318 52.9266 45.5697C52.6273 45.8076 52.2556 45.9359 51.8733 45.9334H45.375C44.0323 45.9334 42.7447 46.4667 41.7953 47.4161C40.8459 48.3656 40.3125 49.6532 40.3125 50.9959C40.3122 51.2657 40.2472 51.5315 40.123 51.771C39.9987 52.0105 39.8189 52.2167 39.5985 52.3723C39.3781 52.528 39.1236 52.6285 38.8564 52.6655C38.5891 52.7025 38.3169 52.6749 38.0625 52.5849C35.7211 51.7581 33.7523 50.3687 32.37 48.5687C30.934 46.6819 30.1662 44.3711 30.1875 42.0001C30.1873 38.8883 31.4151 35.9021 33.6039 33.6904C35.7928 31.4786 38.766 30.2198 41.8777 30.1876H42C45.1117 30.2003 48.0939 31.4352 50.3035 33.6262C52.5132 35.8172 53.7734 38.7887 53.8125 41.9002C53.8201 42.8188 53.7215 43.7353 53.5186 44.6312V44.6256ZM44.25 34.6876C44.25 35.1326 44.118 35.5676 43.8708 35.9376C43.6236 36.3076 43.2722 36.596 42.861 36.7663C42.4499 36.9366 41.9975 36.9812 41.561 36.8944C41.1246 36.8075 40.7237 36.5932 40.409 36.2786C40.0943 35.9639 39.8801 35.563 39.7932 35.1265C39.7064 34.6901 39.751 34.2377 39.9213 33.8266C40.0916 33.4154 40.38 33.064 40.75 32.8168C41.12 32.5696 41.555 32.4376 42 32.4376C42.5967 32.4376 43.169 32.6746 43.591 33.0966C44.0129 33.5186 44.25 34.0909 44.25 34.6876ZM38.0625 38.0626C38.0625 38.5076 37.9305 38.9426 37.6833 39.3126C37.4361 39.6826 37.0847 39.971 36.6735 40.1413C36.2624 40.3116 35.81 40.3562 35.3736 40.2694C34.9371 40.1825 34.5362 39.9682 34.2215 39.6536C33.9068 39.3389 33.6926 38.938 33.6057 38.5015C33.5189 38.0651 33.5635 37.6127 33.7338 37.2016C33.9041 36.7904 34.1925 36.439 34.5625 36.1918C34.9325 35.9446 35.3675 35.8126 35.8125 35.8126C36.4092 35.8126 36.9815 36.0496 37.4035 36.4716C37.8254 36.8936 38.0625 37.4659 38.0625 38.0626ZM38.0625 45.9376C38.0625 46.3826 37.9305 46.8176 37.6833 47.1876C37.4361 47.5576 37.0847 47.846 36.6735 48.0163C36.2624 48.1866 35.81 48.2312 35.3736 48.1444C34.9371 48.0575 34.5362 47.8433 34.2215 47.5286C33.9068 47.2139 33.6926 46.813 33.6057 46.3765C33.5189 45.9401 33.5635 45.4877 33.7338 45.0766C33.9041 44.6654 34.1925 44.314 34.5625 44.0668C34.9325 43.8196 35.3675 43.6876 35.8125 43.6876C36.4092 43.6876 36.9815 43.9246 37.4035 44.3466C37.8254 44.7686 38.0625 45.3409 38.0625 45.9376ZM50.4375 38.0626C50.4375 38.5076 50.3055 38.9426 50.0583 39.3126C49.8111 39.6826 49.4597 39.971 49.0485 40.1413C48.6374 40.3116 48.185 40.3562 47.7485 40.2694C47.3121 40.1825 46.9112 39.9682 46.5965 39.6536C46.2818 39.3389 46.0676 38.938 45.9807 38.5015C45.8939 38.0651 45.9385 37.6127 46.1088 37.2016C46.2791 36.7904 46.5675 36.439 46.9375 36.1918C47.3075 35.9446 47.7425 35.8126 48.1875 35.8126C48.7842 35.8126 49.3565 36.0496 49.7785 36.4716C50.2004 36.8936 50.4375 37.4659 50.4375 38.0626Z" fill="#1FFFA5"/>
</svg>
