<svg width="84" height="84" viewBox="0 0 84 84" fill="none" xmlns="http://www.w3.org/2000/svg">
<rect width="84" height="84" rx="42" fill="#003D25"/>
<path d="M56.0414 30.594C55.9994 29.9088 55.7083 29.2626 55.2229 28.7771C54.7375 28.2917 54.0913 28.0006 53.4061 27.9586C51.5597 27.8504 46.8459 28.0177 42.9323 31.9299L42.4218 32.4376H34.4568C34.0873 32.4363 33.7213 32.5085 33.3799 32.65C33.0386 32.7915 32.7287 32.9994 32.4684 33.2616L27.6379 38.0893C27.2681 38.4589 27.0087 38.9243 26.8887 39.4332C26.7688 39.9421 26.7931 40.4743 26.9588 40.9702C27.1246 41.4661 27.4253 41.9059 27.8272 42.2404C28.2291 42.5748 28.7163 42.7906 29.234 42.8635L34.4568 43.5919L40.4081 49.5432L41.1379 54.7716C41.209 55.2902 41.4243 55.7783 41.7591 56.1806C42.094 56.5829 42.5351 56.883 43.0322 57.0469C43.3213 57.1416 43.6237 57.1891 43.9279 57.1876C44.2965 57.1873 44.6614 57.1143 45.0017 56.9726C45.342 56.831 45.6509 56.6235 45.9108 56.3621L50.7398 51.5316C51.0017 51.2711 51.2092 50.9612 51.3505 50.6199C51.4917 50.2785 51.5637 49.9126 51.5625 49.5432V41.5782L52.0687 41.0733C55.9823 37.1541 56.1497 32.4376 56.0414 30.594ZM34.6875 35.8126H39.0468L34.6523 40.2113L30.8231 39.6769L34.6875 35.8126ZM45.3187 34.3177C46.2816 33.3468 47.4306 32.5803 48.6967 32.0639C49.9629 31.5475 51.3202 31.292 52.6875 31.3126C52.7089 32.6802 52.4536 34.0382 51.9369 35.3047C51.4202 36.5712 50.6529 37.7202 49.6809 38.6827L42 46.3594L37.6406 42.0001L45.3187 34.3177ZM48.1875 49.3126L44.3217 53.1783L43.7873 49.3491L48.1875 44.9532V49.3126ZM38.0625 52.4063C36.8376 54.0727 34.3795 56.0626 29.625 56.0626C29.1774 56.0626 28.7482 55.8848 28.4317 55.5683C28.1153 55.2518 27.9375 54.8226 27.9375 54.3751C27.9375 49.6163 29.9231 47.1582 31.5937 45.9376C31.7705 45.7891 31.9758 45.6784 32.197 45.6124C32.4183 45.5465 32.6507 45.5266 32.8799 45.5541C33.1091 45.5815 33.3303 45.6557 33.5297 45.772C33.729 45.8884 33.9024 46.0444 34.0391 46.2304C34.1758 46.4165 34.2729 46.6286 34.3243 46.8536C34.3757 47.0787 34.3804 47.3119 34.3381 47.5388C34.2958 47.7658 34.2074 47.9816 34.0784 48.173C33.9493 48.3644 33.7823 48.5273 33.5878 48.6516C32.7609 49.2605 31.8061 50.4094 31.4531 52.5469C33.592 52.194 34.7395 51.2391 35.3484 50.4122C35.4727 50.2177 35.6356 50.0507 35.827 49.9217C36.0184 49.7926 36.2342 49.7042 36.4612 49.6619C36.6881 49.6196 36.9213 49.6243 37.1464 49.6757C37.3714 49.7271 37.5835 49.8242 37.7696 49.9609C37.9556 50.0976 38.1116 50.271 38.228 50.4704C38.3443 50.6698 38.4185 50.8909 38.446 51.1201C38.4734 51.3493 38.4535 51.5818 38.3876 51.803C38.3216 52.0242 38.211 52.2296 38.0625 52.4063Z" fill="#1FFFA5"/>
</svg>
