<svg width="17" height="16" viewBox="0 0 17 16" fill="none" xmlns="http://www.w3.org/2000/svg">
<path d="M15.21 6.15564C15.1638 6.00996 15.075 5.8815 14.955 5.78689C14.835 5.69229 14.6893 5.63589 14.5369 5.62501L10.695 5.31251L9.21502 1.72939C9.15673 1.58767 9.05764 1.46648 8.93033 1.38119C8.80303 1.2959 8.65325 1.25037 8.50002 1.25037C8.34678 1.25037 8.19701 1.2959 8.0697 1.38119C7.9424 1.46648 7.84331 1.58767 7.78502 1.72939L6.30502 5.31251L2.46314 5.62501C2.31047 5.63798 2.16502 5.69573 2.04503 5.79102C1.92505 5.88632 1.83587 6.01492 1.78868 6.1607C1.74149 6.30647 1.73839 6.46294 1.77976 6.61047C1.82114 6.758 1.90515 6.89004 2.02127 6.99001L4.94939 9.51564L4.05439 13.29C4.01691 13.4392 4.02487 13.5962 4.07726 13.7409C4.12964 13.8855 4.22406 14.0112 4.34839 14.1019C4.47272 14.1925 4.6213 14.2439 4.77505 14.2494C4.92879 14.255 5.0807 14.2145 5.21127 14.1331L8.50002 12.1106L11.7888 14.1331C11.918 14.2147 12.0688 14.2554 12.2215 14.2497C12.3742 14.244 12.5216 14.1923 12.6444 14.1013C12.7706 14.0119 12.8669 13.8866 12.9207 13.7416C12.9744 13.5966 12.9831 13.4388 12.9456 13.2888L12.0506 9.51251L14.9788 6.98689C15.0961 6.88742 15.1809 6.75501 15.2221 6.6068C15.2634 6.45859 15.2591 6.30142 15.21 6.15564ZM14.6519 6.60939L11.6094 9.23439C11.5747 9.26427 11.549 9.3031 11.5349 9.34663C11.5207 9.39016 11.5189 9.43673 11.5294 9.48126L12.4588 13.4056C12.4724 13.4593 12.4694 13.5158 12.4502 13.5677C12.431 13.6196 12.3965 13.6644 12.3513 13.6963C12.3082 13.7284 12.2564 13.7467 12.2027 13.7487C12.149 13.7507 12.096 13.7363 12.0506 13.7075L8.63127 11.6044C8.59181 11.5801 8.54637 11.5672 8.50002 11.5672C8.45366 11.5672 8.40822 11.5801 8.36877 11.6044L4.94939 13.7075C4.90405 13.7363 4.85102 13.7507 4.79733 13.7487C4.74364 13.7467 4.69183 13.7284 4.64877 13.6963C4.60352 13.6644 4.56901 13.6196 4.54981 13.5677C4.53062 13.5158 4.52764 13.4593 4.54127 13.4056L5.47064 9.48126C5.48118 9.43673 5.47929 9.39016 5.46518 9.34663C5.45108 9.3031 5.42529 9.26427 5.39064 9.23439L2.34814 6.60939C2.30611 6.57395 2.27575 6.52666 2.26103 6.47369C2.24631 6.42073 2.24792 6.36455 2.26564 6.31251C2.28194 6.26098 2.31336 6.21553 2.35583 6.1821C2.3983 6.14866 2.44984 6.12877 2.50377 6.12501L6.50002 5.79939C6.54598 5.79573 6.59004 5.77944 6.62733 5.75231C6.66461 5.72517 6.69366 5.68825 6.71127 5.64564L8.25002 1.92064C8.27017 1.87014 8.30501 1.82685 8.35002 1.79636C8.39503 1.76586 8.44815 1.74956 8.50252 1.74956C8.55689 1.74956 8.61001 1.76586 8.65502 1.79636C8.70003 1.82685 8.73486 1.87014 8.75502 1.92064L10.2938 5.64564C10.311 5.68755 10.3393 5.724 10.3756 5.75108C10.4119 5.77816 10.4549 5.79486 10.5 5.79939L14.4938 6.12126C14.5477 6.12502 14.5992 6.14491 14.6417 6.17835C14.6842 6.21178 14.7156 6.25723 14.7319 6.30876C14.7507 6.36106 14.7532 6.41786 14.7389 6.47158C14.7246 6.52529 14.6942 6.57337 14.6519 6.60939Z" fill="#B3B3B3"/>
</svg>
