<svg width="84" height="84" viewBox="0 0 84 84" fill="none" xmlns="http://www.w3.org/2000/svg">
<rect width="84" height="84" rx="42" fill="#003D25"/>
<path d="M56.9597 53.5313C55.0316 50.1475 52.021 47.5108 48.4125 46.0459C50.207 44.7 51.5325 42.8236 52.2013 40.6825C52.8702 38.5414 52.8484 36.2442 52.139 34.1162C51.4297 31.9882 50.0688 30.1373 48.2491 28.8257C46.4293 27.5141 44.2431 26.8083 42 26.8083C39.7569 26.8083 37.5706 27.5141 35.7509 28.8257C33.9312 30.1373 32.5703 31.9882 31.8609 34.1162C31.1516 36.2442 31.1298 38.5414 31.7986 40.6825C32.4674 42.8236 33.793 44.7 35.5875 46.0459C31.9789 47.5108 28.9683 50.1475 27.0403 53.5313C26.9208 53.7234 26.8412 53.9376 26.8061 54.1611C26.7711 54.3845 26.7813 54.6128 26.8363 54.8322C26.8912 55.0517 26.9897 55.2579 27.1259 55.4385C27.2621 55.6191 27.4332 55.7705 27.6291 55.8837C27.8249 55.9968 28.0416 56.0695 28.2661 56.0972C28.4906 56.125 28.7184 56.1074 28.9359 56.0453C29.1535 55.9833 29.3563 55.8782 29.5324 55.7362C29.7086 55.5942 29.8543 55.4183 29.9611 55.2188C32.5092 50.8144 37.0092 48.1876 42 48.1876C46.9908 48.1876 51.4908 50.8158 54.0389 55.2188C54.2702 55.5908 54.6372 55.8583 55.0621 55.9646C55.4871 56.071 55.9367 56.0079 56.3161 55.7888C56.6954 55.5696 56.9746 55.2116 57.0947 54.7903C57.2148 54.369 57.1664 53.9175 56.9597 53.5313ZM34.6875 37.5001C34.6875 36.0538 35.1163 34.64 35.9198 33.4375C36.7234 32.2349 37.8654 31.2977 39.2016 30.7442C40.5378 30.1907 42.0081 30.0459 43.4266 30.3281C44.8451 30.6102 46.148 31.3067 47.1707 32.3293C48.1934 33.352 48.8898 34.655 49.172 36.0735C49.4541 37.492 49.3093 38.9623 48.7558 40.2984C48.2024 41.6346 47.2651 42.7767 46.0626 43.5802C44.86 44.3837 43.4462 44.8126 42 44.8126C40.0613 44.8103 38.2026 44.0392 36.8317 42.6683C35.4608 41.2974 34.6897 39.4388 34.6875 37.5001Z" fill="#1FFFA5"/>
</svg>
